#tb 0: 1/25
#media_type 0: video
#codec_id 0: rawvideo
#dimensions 0: 256x256
#sar 0: 1/1
0,          0,          0,        1,   196608, 0xa45a9b0f
0,          1,          1,        1,   196608, 0x28119b0f
0,          2,          2,        1,   196608, 0xf6f19b0f
